# xmcd
#
# Track frame offsets:
#	150
#	14805
#	27012
#	37767
#	50122
#	62577
#	75350
#	90112
#	107132
#	119505
#	134295
#	150657
#	161752
#	172170
#	182167
#	194585
#	206870
#	221252
#
# Disc length: 3126 seconds
#
# Revision: 5
# Processed by: cddbd v1.5.2PL0 Copyright (c) Steve Scherf et al.
# Submitted via: audiograbber 1.83.01
#
DISCID=f60c3412
DTITLE=Elmore James - Elmore James - Very Best Of - Let's Cut It
DYEAR=1987
DGENRE=Blues
TTITLE0=Elmore James - Dust My Blues
TTITLE1=Elmore James - Blues Before Sunset
TTITLE2=Elmore James - No Love In My Heart
TTITLE3=Elmore James - Sho' Nuff I Do
TTITLE4=Elmore James - Standing At The Crossroads
TTITLE5=Elmore James - I Was A Fool
TTITLE6=Elmore James - Sunnyland
TTITLE7=Elmore James - Canton, Mississippi Breakdown
TTITLE8=Elmore James - Happy Home
TTITLE9=Elmore James - Wild About You Baby
TTITLE10=Elmore James - Long Tall Woman
TTITLE11=Elmore James - So Mean To Me
TTITLE12=Elmore James - Hawaiian Boogie
TTITLE13=Elmore James - Mean And Evil
TTITLE14=Elmore James - Dark And Dreary
TTITLE15=Elmore James - My Best Friend
TTITLE16=Elmore James - I Believe
TTITLE17=Elmore James - Goodbye Baby
EXTD=YEAR: 1987
EXTT0=
EXTT1=
EXTT2=
EXTT3=
EXTT4=
EXTT5=
EXTT6=
EXTT7=
EXTT8=
EXTT9=
EXTT10=
EXTT11=
EXTT12=
EXTT13=
EXTT14=
EXTT15=
EXTT16=
EXTT17=
PLAYORDER=
